<svg width="35" height="35" viewBox="0 0 35 35" fill="none" xmlns="http://www.w3.org/2000/svg">
<path d="M17.0391 34.7254L15.4923 33.1786C15.1262 32.8125 15.1262 32.2189 15.4923 31.8528L27.6118 19.7334H0.937498C0.419766 19.7334 -4.5262e-08 19.3135 0 18.7957L1.91237e-07 16.6083C2.36499e-07 16.0906 0.419766 15.6708 0.9375 15.6708L27.6118 15.6708L15.4923 3.55128C15.1262 3.18518 15.1262 2.59158 15.4923 2.22541L17.0391 0.678622C17.4052 0.312529 17.9987 0.312529 18.365 0.678622L34.7254 17.0391C35.0915 17.4052 35.0915 17.9988 34.7254 18.3649L18.3648 34.7254C17.9987 35.0915 17.4052 35.0915 17.0391 34.7254Z" fill="white"/>
</svg>
