<svg width="35" height="35" viewBox="0 0 35 35" fill="none" xmlns="http://www.w3.org/2000/svg">
<path d="M17.961 0.274629L19.5076 1.82142C19.8737 2.18752 19.8737 2.78112 19.5076 3.14729L7.38815 15.2667H34.0625C34.5802 15.2667 35 15.6865 35 16.2042V18.3918C35 18.9094 34.5802 19.3293 34.0625 19.3293H7.38815L19.5076 31.4487C19.8737 31.8148 19.8737 32.4084 19.5076 32.7745L17.961 34.3214C17.5949 34.6875 17.0012 34.6875 16.635 34.3214L0.27457 17.961C-0.0915235 17.5949 -0.0915235 17.0013 0.27457 16.6351L16.6351 0.274629C17.0012 -0.091543 17.5949 -0.091543 17.961 0.274629Z" fill="white"/>
</svg>
